<svg xmlns="http://www.w3.org/2000/svg" width="128" height="128" viewBox="0 0 128 128" fill="none">
  <rect width="128" height="128" rx="20" fill="#2C3E50"/>
  <path d="M64 24C49.64 24 38 35.64 38 50V56H32C29.8 56 28 57.8 28 60V100C28 102.2 29.8 104 32 104H96C98.2 104 100 102.2 100 100V60C100 57.8 98.2 56 96 56H90V50C90 35.64 78.36 24 64 24ZM78 56H50V50C50 42.28 56.28 36 64 36C71.72 36 78 42.28 78 50V56Z" fill="#3498DB"/>
  <circle cx="64" cy="80" r="8" fill="#ECF0F1"/>
  <path d="M44 76C42.9 76 42 76.9 42 78V82C42 83.1 42.9 84 44 84C45.1 84 46 83.1 46 82V78C46 76.9 45.1 76 44 76Z" fill="#E74C3C"/>
  <path d="M84 76C82.9 76 82 76.9 82 78V82C82 83.1 82.9 84 84 84C85.1 84 86 83.1 86 82V78C86 76.9 85.1 76 84 76Z" fill="#2ECC71"/>
</svg>
